<?xml version="1.0" encoding="UTF-8" standalone="no"?>
<!-- Created with Inkscape (http://www.inkscape.org/) -->

<svg
   xmlns:dc="http://purl.org/dc/elements/1.1/"
   xmlns:cc="http://creativecommons.org/ns#"
   xmlns:rdf="http://www.w3.org/1999/02/22-rdf-syntax-ns#"
   xmlns:svg="http://www.w3.org/2000/svg"
   xmlns="http://www.w3.org/2000/svg"
   version="1.1"
   width="50"
   height="50"
   viewBox="0 0 49.999999 49.999999"
   id="Layer_1"
   xml:space="preserve"><metadata
     id="metadata9"><rdf:RDF><cc:Work
         rdf:about=""><dc:format>image/svg+xml</dc:format><dc:type
           rdf:resource="http://purl.org/dc/dcmitype/StillImage" /><dc:title></dc:title></cc:Work></rdf:RDF></metadata><defs
     id="defs7" /><g
     transform="translate(0,-6.6930007)"
     id="layer1" /><path
     d="m 10.889041,23.465208 c -0.06051,0 0.663429,1.531938 0.6836,1.531938 1.580126,2.819572 4.626072,4.572279 9.764283,5.057524 -0.732909,0.546881 -1.613746,1.585728 -1.735898,2.785952 -0.922301,0.584983 -2.776988,0.778856 -4.218153,0.332835 -2.020544,-0.627568 -2.793797,-4.55771 -5.8184494,-3.997382 -0.654463,0.121032 -0.524467,0.544639 0.04147,0.906612 0.9223004,0.584982 1.7896894,1.320132 2.4587194,2.881207 0.514382,1.199103 1.594695,3.341799 5.012699,3.341799 1.355994,0 2.306312,-0.161375 2.306312,-0.161375 0,0 0.02577,3.060514 0.02577,4.250651 0,1.372805 -1.884946,1.759431 -1.884946,2.419498 0,0.259993 0.624206,0.285767 1.12514,0.285767 0.990661,0 3.05155,-0.813596 3.05155,-2.239072 0,-1.132983 0.01905,-4.943217 0.01905,-5.610008 0,-1.456853 0.794546,-1.918564 0.794546,-1.918564 0,0 0.09862,7.778479 -0.189391,8.82181 -0.338438,1.225999 -0.949196,1.051176 -0.949196,1.599178 0,0.813596 2.481133,0.199476 3.303696,-1.58685 0.635412,-1.389615 0.35749,-9.021288 0.35749,-9.021288 l 0.677996,-0.01345 c 0,0 0.0381,3.493088 0.01457,5.090024 -0.02353,1.654089 -0.137841,3.745235 0.861786,4.731412 0.656704,0.64774 2.783711,1.786327 2.783711,0.746358 0,-0.604034 -1.165483,-1.100486 -1.165483,-2.735523 l 0,-7.525211 c 0.931266,0 0.791183,2.47441 0.791183,2.47441 l 0.06836,4.598055 c 0,0 -0.2062,1.674262 1.843481,2.375793 0.722823,0.248785 2.26933,0.314904 2.342172,-0.101979 0.07284,-0.418005 -1.862531,-1.038849 -1.880462,-2.33657 -0.01121,-0.791183 0.03586,-1.252894 0.03586,-4.691069 0,-3.438175 -0.469555,-4.708999 -2.106834,-5.720951 5.051919,-0.51102 8.179673,-1.73926 9.702645,-5.028387 0.118789,0.0033 0.621965,-1.536422 0.555846,-1.536422 0.341801,-1.241686 0.526708,-2.710868 0.56257,-4.450128 -0.009,-4.719084 -2.306312,-6.386622 -2.74673,-7.169961 0.649981,-3.5726545 -0.109825,-5.1964865 -0.461711,-5.7545725 -1.302203,-0.454987 -4.528573,1.171086 -6.292487,2.315276 -2.873364,-0.824803 -8.949565,-0.746357 -11.22786,0.212925 -4.203585,-2.958534 -6.428088,-2.504668 -6.428088,-2.504668 0,0 -1.437802,2.531564 -0.379903,6.2364555 -1.382889,1.732535 -2.413894,2.958534 -2.413894,6.207318 0.0011,1.832274 0.22077,3.470674 0.71498,4.900633 z"
     id="path3-9"
     style="fill:#cccccc;fill-opacity:1;fill-rule:evenodd" /><path
     d="m 24.630955,24.999829 c -0.0016,0 0.01721,0.03974 0.01773,0.03974 0.04099,0.07314 0.120005,0.11861 0.253296,0.131198 -0.01901,0.01419 -0.04186,0.04114 -0.04503,0.07227 -0.02393,0.01517 -0.07204,0.02021 -0.109423,0.0086 -0.05241,-0.01628 -0.07248,-0.118231 -0.150937,-0.103696 -0.01698,0.0031 -0.0136,0.01413 0.0011,0.02352 0.02393,0.01517 0.04643,0.03425 0.06378,0.07474 0.01334,0.03111 0.04137,0.08669 0.130034,0.08669 0.03518,0 0.05983,-0.0042 0.05983,-0.0042 0,0 6.81e-4,0.07939 6.81e-4,0.110266 0,0.03561 -0.0489,0.04564 -0.0489,0.06277 0,0.0067 0.01619,0.0074 0.02919,0.0074 0.0257,0 0.07916,-0.02111 0.07916,-0.05808 0,-0.02939 4.92e-4,-0.128233 4.92e-4,-0.14553 0,-0.03779 0.02061,-0.04977 0.02061,-0.04977 0,0 0.0026,0.201783 -0.0049,0.228848 -0.0088,0.0318 -0.02462,0.02727 -0.02462,0.04148 0,0.02111 0.06436,0.0052 0.0857,-0.04116 0.01648,-0.03605 0.0093,-0.234021 0.0093,-0.234021 l 0.01759,-3.48e-4 c 0,0 9.84e-4,0.09061 3.77e-4,0.13204 -6.06e-4,0.04291 -0.0036,0.09716 0.02236,0.122738 0.01704,0.0168 0.07221,0.04634 0.07221,0.01936 0,-0.01567 -0.03023,-0.02855 -0.03023,-0.07096 l 0,-0.195213 c 0.02416,0 0.02052,0.06419 0.02052,0.06419 l 0.0018,0.119279 c 0,0 -0.0053,0.04343 0.04782,0.06163 0.01875,0.0065 0.05887,0.0082 0.06076,-0.0026 0.0019,-0.01084 -0.04832,-0.02695 -0.04878,-0.06061 -2.9e-4,-0.02052 9.46e-4,-0.0325 9.46e-4,-0.121691 0,-0.08919 -0.01218,-0.122156 -0.05465,-0.148408 0.131052,-0.01326 0.212189,-0.04512 0.251697,-0.130441 0.0031,8.4e-5 0.01613,-0.03986 0.01442,-0.03986 0.0089,-0.03221 0.01367,-0.07032 0.01459,-0.115442 -2.31e-4,-0.122418 -0.05983,-0.165676 -0.07125,-0.185995 0.01686,-0.09268 -0.0028,-0.134804 -0.01198,-0.149281 -0.03378,-0.0118 -0.117476,0.03038 -0.163233,0.06006 -0.07454,-0.0214 -0.232162,-0.01936 -0.291263,0.0055 -0.109046,-0.07675 -0.166752,-0.06497 -0.166752,-0.06497 0,0 -0.0373,0.06567 -0.0099,0.16178 -0.03587,0.04494 -0.06262,0.07675 -0.06262,0.161024 2.9e-5,0.04753 0.0057,0.09003 0.01855,0.127128 z"
     id="path3-9-2"
     style="fill:#ffffff;fill-opacity:1;fill-rule:evenodd" /></svg>