<?xml version="1.0" encoding="UTF-8" standalone="no"?>
<!-- Created with Inkscape (http://www.inkscape.org/) -->

<svg
   xmlns:dc="http://purl.org/dc/elements/1.1/"
   xmlns:cc="http://creativecommons.org/ns#"
   xmlns:rdf="http://www.w3.org/1999/02/22-rdf-syntax-ns#"
   xmlns:svg="http://www.w3.org/2000/svg"
   xmlns="http://www.w3.org/2000/svg"
   version="1.1"
   width="50"
   height="50"
   viewBox="0 0 49.999999 49.999999"
   id="Layer_1"
   xml:space="preserve"><metadata
     id="metadata9"><rdf:RDF><cc:Work
         rdf:about=""><dc:format>image/svg+xml</dc:format><dc:type
           rdf:resource="http://purl.org/dc/dcmitype/StillImage" /><dc:title></dc:title></cc:Work></rdf:RDF></metadata><defs
     id="defs7" /><path
     d="m 47.039175,10.652379 c -1.598686,0.710625 -3.319194,1.189966 -5.124446,1.404478 1.843211,-1.103455 3.256517,-2.8513286 3.923004,-4.9364173 -1.724039,1.0231231 -3.632575,1.7655281 -5.665581,2.1663027 -1.626934,-1.7337483 -3.945955,-2.8177827 -6.512151,-2.8177827 -4.926706,0 -8.921214,3.9945083 -8.921214,8.9220973 0,0.698266 0.07857,1.378877 0.231284,2.033006 C 17.554852,17.051536 10.980025,13.500176 6.579445,8.1020734 5.8114402,9.4191574 5.3718236,10.951636 5.3718236,12.588281 c 0,3.094971 1.5748513,5.826243 3.9689076,7.425812 -1.4618574,-0.04679 -2.8380867,-0.448445 -4.0412942,-1.116697 -8.828e-4,0.03708 -8.828e-4,0.07503 -8.828e-4,0.112994 0,4.322013 3.0755503,7.927222 7.1574528,8.748192 -0.748584,0.203036 -1.536893,0.312499 -2.350801,0.312499 -0.5755633,0 -1.134353,-0.05561 -1.6790185,-0.160663 1.1361175,3.544298 4.4305945,6.124617 8.3341775,6.196121 -3.053481,2.393174 -6.8996857,3.819721 -11.0804567,3.819721 -0.7194527,0 -1.4300779,-0.04237 -2.1283443,-0.125353 3.9494867,2.53265 8.638731,4.008632 13.676666,4.008632 16.411468,0 25.384765,-13.594568 25.384765,-25.384765 0,-0.386651 -0.0079,-0.772419 -0.02472,-1.155539 1.742576,-1.25529 3.255634,-2.827493 4.450897,-4.616856 z"
     id="path3"
     style="fill:#5bc0de;fill-opacity:1" /><g
     transform="translate(0,-6.6930007)"
     id="layer1" /><path
     d="m 25.63751,24.621307 c -0.04617,0.02054 -0.09587,0.03437 -0.14804,0.04056 0.05325,-0.03186 0.09407,-0.08236 0.11332,-0.142606 -0.04981,0.02955 -0.104939,0.051 -0.163672,0.06258 -0.04698,-0.05009 -0.113989,-0.0814 -0.188115,-0.0814 -0.142306,0 -0.257704,0.115383 -0.257704,0.257731 0,0.02009 0.0023,0.03982 0.0067,0.05873 -0.214202,-0.01076 -0.404128,-0.113355 -0.531245,-0.269283 -0.02218,0.03806 -0.03488,0.08232 -0.03488,0.129586 0,0.0894 0.04548,0.168311 0.11466,0.214509 -0.04222,-0.0014 -0.08197,-0.01306 -0.116742,-0.03225 -2.5e-5,0.0011 -2.5e-5,0.0021 -2.5e-5,0.0032 0,0.124857 0.08883,0.228993 0.206764,0.252709 -0.02163,0.0058 -0.04441,0.009 -0.06791,0.009 -0.01676,0 -0.03276,-0.0016 -0.0485,-0.0048 0.0328,0.10238 0.12798,0.17693 0.240747,0.178983 -0.0882,0.06914 -0.199322,0.110338 -0.320079,0.110338 -0.02075,0 -0.04132,-0.0012 -0.06149,-0.0037 0.114095,0.07316 0.249545,0.115806 0.395073,0.115806 0.474075,0 0.733286,-0.392701 0.733286,-0.733283 0,-0.01112 -2.32e-4,-0.0223 -7.15e-4,-0.03338 0.05035,-0.03626 0.09404,-0.08167 0.12858,-0.133361 z"
     id="path3-2"
     style="fill:#ffffff;fill-opacity:1" /></svg>